<svg width="50" height="50" viewBox="0 0 50 50" fill="none" xmlns="http://www.w3.org/2000/svg">
<path d="M48.3301 42.5215C49.1914 43.4785 49.1914 44.9141 48.2344 45.7754L45.5547 48.4551C44.6934 49.4121 43.2578 49.4121 42.3008 48.4551L32.8262 38.9805C32.3477 38.502 32.1562 37.9277 32.1562 37.3535V35.7266C28.7109 38.4062 24.5 39.9375 19.9062 39.9375C8.90039 39.9375 0 31.0371 0 20.0312C0 9.12109 8.90039 0.125 19.9062 0.125C30.8164 0.125 39.8125 9.12109 39.8125 20.0312C39.8125 24.7207 38.1855 28.9316 35.6016 32.2812H37.1328C37.707 32.2812 38.2812 32.5684 38.7598 32.9512L48.3301 42.5215ZM19.9062 32.2812C26.6055 32.2812 32.1562 26.8262 32.1562 20.0312C32.1562 13.332 26.6055 7.78125 19.9062 7.78125C13.1113 7.78125 7.65625 13.332 7.65625 20.0312C7.65625 26.8262 13.1113 32.2812 19.9062 32.2812Z" fill="black"/>
</svg>
